<svg width="30" height="30" viewBox="0 0 30 30" fill="none" xmlns="http://www.w3.org/2000/svg">
<g clip-path="url(#clip0_211_2230)">
<path d="M28.1938 17.0774L25.8188 8.53243C25.1227 6.0291 23.6098 3.83029 21.5205 2.28552C19.4313 0.74075 16.8856 -0.0613335 14.2882 0.00676663C11.6907 0.0748668 9.19061 1.00924 7.18518 2.66137C5.17975 4.3135 3.78411 6.58856 3.2201 9.12493L1.38135 17.3937C1.17824 18.3074 1.18294 19.255 1.39509 20.1666C1.60724 21.0782 2.02143 21.9305 2.60708 22.6606C3.19272 23.3907 3.93487 23.98 4.77874 24.3849C5.6226 24.7898 6.54663 25 7.4826 24.9999H8.8751C9.16199 26.4128 9.92851 27.683 11.0448 28.5954C12.161 29.5078 13.5584 30.0062 15.0001 30.0062C16.4418 30.0062 17.8392 29.5078 18.9554 28.5954C20.0717 27.683 20.8382 26.4128 21.1251 24.9999H22.1726C23.1361 25 24.0866 24.7773 24.9498 24.3492C25.813 23.9212 26.5655 23.2993 27.1486 22.5323C27.7317 21.7652 28.1296 20.8737 28.3111 19.9275C28.4926 18.9812 28.4529 18.0058 28.1951 17.0774H28.1938ZM15.0001 27.4999C14.2273 27.4967 13.4743 27.2548 12.8442 26.8073C12.2141 26.3598 11.7377 25.7286 11.4801 24.9999H18.5201C18.2625 25.7286 17.7861 26.3598 17.156 26.8073C16.5259 27.2548 15.7729 27.4967 15.0001 27.4999ZM25.1576 21.0187C24.8093 21.4808 24.358 21.8553 23.8396 22.1124C23.3212 22.3695 22.75 22.5022 22.1713 22.4999H7.4826C6.92108 22.4998 6.36675 22.3736 5.86053 22.1307C5.3543 21.8877 4.90911 21.5341 4.5578 21.0961C4.2065 20.658 3.95805 20.1467 3.8308 19.5997C3.70355 19.0528 3.70075 18.4843 3.8226 17.9362L5.6601 9.66618C6.10304 7.67394 7.19923 5.88694 8.77442 4.58924C10.3496 3.29155 12.3134 2.55765 14.3536 2.5042C16.3938 2.45075 18.3933 3.08083 20.0342 4.29427C21.6752 5.50771 22.8635 7.23487 23.4101 9.20118L25.7851 17.7462C25.942 18.3029 25.967 18.8885 25.8581 19.4566C25.7492 20.0247 25.5093 20.5595 25.1576 21.0187Z" fill="#95A5A6"/>
</g>
<defs>
<clipPath id="clip0_211_2230">
<rect width="30" height="30" fill="white"/>
</clipPath>
</defs>
</svg>
