<svg width="31" height="30" viewBox="0 0 31 30" fill="none" xmlns="http://www.w3.org/2000/svg">
<g clip-path="url(#clip0_211_2147)">
<path d="M23 0H10.5C9.28529 0.00159797 8.09737 0.357132 7.08151 1.02312C6.06565 1.68912 5.26588 2.6367 4.78 3.75H3C2.66848 3.75 2.35054 3.8817 2.11612 4.11612C1.8817 4.35054 1.75 4.66848 1.75 5C1.75 5.33152 1.8817 5.64946 2.11612 5.88388C2.35054 6.1183 2.66848 6.25 3 6.25H4.25V8.75H3C2.66848 8.75 2.35054 8.8817 2.11612 9.11612C1.8817 9.35054 1.75 9.66848 1.75 10C1.75 10.3315 1.8817 10.6495 2.11612 10.8839C2.35054 11.1183 2.66848 11.25 3 11.25H4.25V13.75H3C2.66848 13.75 2.35054 13.8817 2.11612 14.1161C1.8817 14.3505 1.75 14.6685 1.75 15C1.75 15.3315 1.8817 15.6495 2.11612 15.8839C2.35054 16.1183 2.66848 16.25 3 16.25H4.25V18.75H3C2.66848 18.75 2.35054 18.8817 2.11612 19.1161C1.8817 19.3505 1.75 19.6685 1.75 20C1.75 20.3315 1.8817 20.6495 2.11612 20.8839C2.35054 21.1183 2.66848 21.25 3 21.25H4.25V23.75H3C2.66848 23.75 2.35054 23.8817 2.11612 24.1161C1.8817 24.3505 1.75 24.6685 1.75 25C1.75 25.3315 1.8817 25.6495 2.11612 25.8839C2.35054 26.1183 2.66848 26.25 3 26.25H4.78C5.26588 27.3633 6.06565 28.3109 7.08151 28.9769C8.09737 29.6429 9.28529 29.9984 10.5 30H23C24.657 29.998 26.2456 29.3389 27.4172 28.1672C28.5889 26.9956 29.248 25.407 29.25 23.75V6.25C29.248 4.59301 28.5889 3.00445 27.4172 1.83277C26.2456 0.661102 24.657 0.00198482 23 0V0ZM26.75 23.75C26.75 24.7446 26.3549 25.6984 25.6517 26.4017C24.9484 27.1049 23.9946 27.5 23 27.5H10.5C9.50544 27.5 8.55161 27.1049 7.84835 26.4017C7.14509 25.6984 6.75 24.7446 6.75 23.75V6.25C6.75 5.25544 7.14509 4.30161 7.84835 3.59835C8.55161 2.89509 9.50544 2.5 10.5 2.5H23C23.9946 2.5 24.9484 2.89509 25.6517 3.59835C26.3549 4.30161 26.75 5.25544 26.75 6.25V23.75ZM16.75 15C17.7446 15 18.6984 14.6049 19.4017 13.9017C20.1049 13.1984 20.5 12.2446 20.5 11.25C20.5 10.2554 20.1049 9.30161 19.4017 8.59835C18.6984 7.89509 17.7446 7.5 16.75 7.5C15.7554 7.5 14.8016 7.89509 14.0983 8.59835C13.3951 9.30161 13 10.2554 13 11.25C13 12.2446 13.3951 13.1984 14.0983 13.9017C14.8016 14.6049 15.7554 15 16.75 15ZM23 22.5C23 22.8315 22.8683 23.1495 22.6339 23.3839C22.3995 23.6183 22.0815 23.75 21.75 23.75C21.4185 23.75 21.1005 23.6183 20.8661 23.3839C20.6317 23.1495 20.5 22.8315 20.5 22.5C20.5 21.5054 20.1049 20.5516 19.4017 19.8483C18.6984 19.1451 17.7446 18.75 16.75 18.75C15.7554 18.75 14.8016 19.1451 14.0983 19.8483C13.3951 20.5516 13 21.5054 13 22.5C13 22.8315 12.8683 23.1495 12.6339 23.3839C12.3995 23.6183 12.0815 23.75 11.75 23.75C11.4185 23.75 11.1005 23.6183 10.8661 23.3839C10.6317 23.1495 10.5 22.8315 10.5 22.5C10.7638 14.24 22.7388 14.2425 23 22.5Z" fill="#95A5A6"/>
</g>
<defs>
<clipPath id="clip0_211_2147">
<rect width="30" height="30" fill="white" transform="translate(0.5)"/>
</clipPath>
</defs>
</svg>
