<svg width="30" height="30" viewBox="0 0 30 30" fill="none" xmlns="http://www.w3.org/2000/svg">
<g clip-path="url(#clip0_211_2318)">
<path d="M15 0C12.0333 0 9.13319 0.879735 6.66645 2.52796C4.19972 4.17618 2.27713 6.51886 1.14181 9.25975C0.00649929 12.0006 -0.290551 15.0166 0.288228 17.9264C0.867006 20.8361 2.29562 23.5088 4.3934 25.6066C6.49119 27.7044 9.16394 29.133 12.0737 29.7118C14.9834 30.2906 17.9994 29.9935 20.7403 28.8582C23.4811 27.7229 25.8238 25.8003 27.472 23.3336C29.1203 20.8668 30 17.9667 30 15C29.9957 11.0231 28.414 7.21026 25.6019 4.39815C22.7897 1.58604 18.9769 0.00430135 15 0V0ZM16.25 14.8487C16.2501 15.0606 16.1964 15.2691 16.0939 15.4545C15.9913 15.6399 15.8433 15.7962 15.6638 15.9088L10.8638 18.9088C10.7242 18.9959 10.5689 19.0547 10.4066 19.0819C10.2444 19.109 10.0783 19.1039 9.91805 19.0669C9.75775 19.0299 9.60632 18.9616 9.47239 18.8661C9.33846 18.7705 9.22467 18.6495 9.13751 18.51C9.05034 18.3705 8.99151 18.2151 8.96438 18.0529C8.93724 17.8906 8.94234 17.7246 8.97936 17.5643C9.01639 17.404 9.08463 17.2526 9.18018 17.1186C9.27573 16.9847 9.39673 16.8709 9.53626 16.7838L13.75 14.1562V8.75C13.75 8.41848 13.8817 8.10054 14.1161 7.86612C14.3505 7.6317 14.6685 7.5 15 7.5C15.3315 7.5 15.6495 7.6317 15.8839 7.86612C16.1183 8.10054 16.25 8.41848 16.25 8.75V14.8487Z" fill="#95A5A6"/>
</g>
<defs>
<clipPath id="clip0_211_2318">
<rect width="30" height="30" fill="white"/>
</clipPath>
</defs>
</svg>
