<svg width="31" height="30" viewBox="0 0 31 30" fill="none" xmlns="http://www.w3.org/2000/svg">
<g clip-path="url(#clip0_211_2134)">
<mask id="mask0_211_2134" style="mask-type:luminance" maskUnits="userSpaceOnUse" x="0" y="0" width="31" height="30">
<path d="M30.5 0H0.5V30H30.5V0Z" fill="white"/>
</mask>
<g mask="url(#mask0_211_2134)">
<path d="M3 13.75H16.75C17.413 13.75 18.0489 13.4866 18.5177 13.0177C18.9866 12.5489 19.25 11.913 19.25 11.25V2.5C19.25 1.83696 18.9866 1.20107 18.5177 0.732232C18.0489 0.263392 17.413 0 16.75 0H3C2.33696 0 1.70107 0.263392 1.23223 0.732232C0.763392 1.20107 0.5 1.83696 0.5 2.5V11.25C0.5 11.913 0.763392 12.5489 1.23223 13.0177C1.70107 13.4866 2.33696 13.75 3 13.75ZM3 2.5H16.75V11.25H3V2.5Z" fill="#95A5A6"/>
<path d="M28 0H24.25C23.5869 0 22.951 0.263392 22.4821 0.732232C22.0134 1.20107 21.75 1.83696 21.75 2.5V11.25C21.75 11.913 22.0134 12.5489 22.4821 13.0177C22.951 13.4866 23.5869 13.75 24.25 13.75H28C28.663 13.75 29.2989 13.4866 29.7677 13.0177C30.2365 12.5489 30.5 11.913 30.5 11.25V2.5C30.5 1.83696 30.2365 1.20107 29.7677 0.732232C29.2989 0.263392 28.663 0 28 0ZM28 11.25H24.25V2.5H28V11.25Z" fill="#95A5A6"/>
<path d="M6.75 16.2505H3C2.33696 16.2505 1.70107 16.5139 1.23223 16.9827C0.763393 17.4515 0.5 18.0874 0.5 18.7505V27.5005C0.5 28.1635 0.763393 28.7994 1.23223 29.2682C1.70107 29.737 2.33696 30.0005 3 30.0005H6.75C7.41304 30.0005 8.04892 29.737 8.51776 29.2682C8.98661 28.7994 9.25 28.1635 9.25 27.5005V18.7505C9.25 18.0874 8.98661 17.4515 8.51776 16.9827C8.04892 16.5139 7.41304 16.2505 6.75 16.2505ZM6.75 27.5005H3V18.7505H6.75V27.5005Z" fill="#95A5A6"/>
<path d="M28 16.2505H14.25C13.587 16.2505 12.9511 16.5139 12.4822 16.9827C12.0134 17.4515 11.75 18.0874 11.75 18.7505V27.5005C11.75 28.1635 12.0134 28.7994 12.4822 29.2682C12.9511 29.737 13.587 30.0005 14.25 30.0005H28C28.663 30.0005 29.2989 29.737 29.7677 29.2682C30.2366 28.7994 30.5 28.1635 30.5 27.5005V18.7505C30.5 18.0874 30.2366 17.4515 29.7677 16.9827C29.2989 16.5139 28.663 16.2505 28 16.2505ZM28 27.5005H14.25V18.7505H28V27.5005Z" fill="#95A5A6"/>
</g>
</g>
<defs>
<clipPath id="clip0_211_2134">
<rect width="30" height="30" fill="white" transform="translate(0.5)"/>
</clipPath>
</defs>
</svg>
